# xmcd
#
# Track frame offsets:
#	150
#	11219
#	26787
#	39796
#	52732
#	61544
#	71876
#	83185
#	97724
#	110102
#	122352
#	130857
#
# Disc length: 1826 seconds
#
# Revision: 0
# Processed by: cddbd v1.5.2PL0 Copyright (c) Steve Scherf et al.
# Submitted via: dBpowerAMP V4.0
#
DISCID=9007200c
DTITLE=Various Artist - Country Gospel Disc 2
DYEAR=2010
DGENRE=Gospel
TTITLE0=I'll Wake up - Oak Ridge Boys
TTITLE1=Why Me - Jack Greene
TTITLE2=Dear Jesus - Oak Ridge Boys
TTITLE3=Walking my Lord - Wilma Lee Cooper
TTITLE4=I'll Fly Away - Tommy Overstreet
TTITLE5=Heaven - Boxcar Willie
TTITLE6=Turn your radio on - Singing Gospelaires
TTITLE7=Put your hand in the hand - Sandy Posey
TTITLE8=No need to move a mountain - Jeanne Pruett
TTITLE9=Lay my burdens down - Oak Ridge Boys
TTITLE10=Are you walking and talking - Wilma Lee Cooper
TTITLE11=The Christian way - Oak Ridge Boys
EXTD=
EXTT0=
EXTT1=
EXTT2=
EXTT3=
EXTT4=
EXTT5=
EXTT6=
EXTT7=
EXTT8=
EXTT9=
EXTT10=
EXTT11=
PLAYORDER=
